<mxfile host="app.diagrams.net" agent="Mozilla/5.0 (Windows NT 10.0; Win64; x64) AppleWebKit/537.36 (KHTML, like Gecko) Chrome/131.0.0.0 Safari/537.36" version="26.0.6">
  <diagram name="Page-1" id="79G8POYeVPZFB7W29brV">
    <mxGraphModel dx="1114" dy="600" grid="1" gridSize="10" guides="1" tooltips="1" connect="1" arrows="1" fold="1" page="1" pageScale="1" pageWidth="827" pageHeight="1169" math="0" shadow="0">
      <root>
        <mxCell id="0" />
        <mxCell id="1" parent="0" />
        <mxCell id="fEd1ArXGE0hZ05VkS_pZ-9" style="edgeStyle=orthogonalEdgeStyle;rounded=0;orthogonalLoop=1;jettySize=auto;html=1;exitX=0;exitY=0.25;exitDx=0;exitDy=0;exitPerimeter=0;entryX=0;entryY=0.25;entryDx=0;entryDy=0;entryPerimeter=0;" edge="1" parent="1" target="fEd1ArXGE0hZ05VkS_pZ-1">
          <mxGeometry relative="1" as="geometry">
            <mxPoint x="50" y="350" as="sourcePoint" />
          </mxGeometry>
        </mxCell>
        <mxCell id="fEd1ArXGE0hZ05VkS_pZ-10" style="edgeStyle=orthogonalEdgeStyle;rounded=0;orthogonalLoop=1;jettySize=auto;html=1;exitX=0;exitY=0.75;exitDx=0;exitDy=0;exitPerimeter=0;entryX=0;entryY=0.75;entryDx=0;entryDy=0;entryPerimeter=0;" edge="1" parent="1" target="fEd1ArXGE0hZ05VkS_pZ-1">
          <mxGeometry relative="1" as="geometry">
            <mxPoint x="50" y="390" as="sourcePoint" />
          </mxGeometry>
        </mxCell>
        <mxCell id="fEd1ArXGE0hZ05VkS_pZ-18" style="edgeStyle=orthogonalEdgeStyle;rounded=0;orthogonalLoop=1;jettySize=auto;html=1;exitX=1;exitY=0.5;exitDx=0;exitDy=0;exitPerimeter=0;entryX=0;entryY=0.5;entryDx=0;entryDy=0;" edge="1" parent="1" source="fEd1ArXGE0hZ05VkS_pZ-1" target="fEd1ArXGE0hZ05VkS_pZ-6">
          <mxGeometry relative="1" as="geometry" />
        </mxCell>
        <mxCell id="fEd1ArXGE0hZ05VkS_pZ-1" value="" style="shape=or;whiteSpace=wrap;html=1;" vertex="1" parent="1">
          <mxGeometry x="160" y="330" width="60" height="80" as="geometry" />
        </mxCell>
        <mxCell id="fEd1ArXGE0hZ05VkS_pZ-20" style="edgeStyle=orthogonalEdgeStyle;rounded=0;orthogonalLoop=1;jettySize=auto;html=1;exitX=0;exitY=0.25;exitDx=0;exitDy=0;exitPerimeter=0;entryX=0;entryY=0.25;entryDx=0;entryDy=0;entryPerimeter=0;" edge="1" parent="1" target="fEd1ArXGE0hZ05VkS_pZ-2">
          <mxGeometry relative="1" as="geometry">
            <mxPoint x="470" y="220" as="sourcePoint" />
          </mxGeometry>
        </mxCell>
        <mxCell id="fEd1ArXGE0hZ05VkS_pZ-21" style="edgeStyle=orthogonalEdgeStyle;rounded=0;orthogonalLoop=1;jettySize=auto;html=1;exitX=1;exitY=0.5;exitDx=0;exitDy=0;exitPerimeter=0;" edge="1" parent="1" source="fEd1ArXGE0hZ05VkS_pZ-2">
          <mxGeometry relative="1" as="geometry">
            <mxPoint x="800" y="240" as="targetPoint" />
          </mxGeometry>
        </mxCell>
        <mxCell id="fEd1ArXGE0hZ05VkS_pZ-2" value="" style="shape=or;whiteSpace=wrap;html=1;" vertex="1" parent="1">
          <mxGeometry x="690" y="200" width="60" height="80" as="geometry" />
        </mxCell>
        <mxCell id="fEd1ArXGE0hZ05VkS_pZ-13" style="edgeStyle=orthogonalEdgeStyle;rounded=0;orthogonalLoop=1;jettySize=auto;html=1;exitX=0.175;exitY=0.75;exitDx=0;exitDy=0;exitPerimeter=0;entryX=0.175;entryY=0.75;entryDx=0;entryDy=0;entryPerimeter=0;" edge="1" parent="1" target="fEd1ArXGE0hZ05VkS_pZ-3">
          <mxGeometry relative="1" as="geometry">
            <mxPoint x="100" y="390" as="sourcePoint" />
            <Array as="points">
              <mxPoint x="100" y="391" />
              <mxPoint x="110" y="391" />
              <mxPoint x="110" y="130" />
            </Array>
          </mxGeometry>
        </mxCell>
        <mxCell id="fEd1ArXGE0hZ05VkS_pZ-14" style="edgeStyle=orthogonalEdgeStyle;rounded=0;orthogonalLoop=1;jettySize=auto;html=1;exitX=0.175;exitY=0.25;exitDx=0;exitDy=0;exitPerimeter=0;entryX=0.175;entryY=0.25;entryDx=0;entryDy=0;entryPerimeter=0;" edge="1" parent="1" target="fEd1ArXGE0hZ05VkS_pZ-3">
          <mxGeometry relative="1" as="geometry">
            <mxPoint x="70" y="350" as="sourcePoint" />
            <Array as="points">
              <mxPoint x="70" y="351" />
              <mxPoint x="80" y="351" />
              <mxPoint x="80" y="90" />
            </Array>
          </mxGeometry>
        </mxCell>
        <mxCell id="fEd1ArXGE0hZ05VkS_pZ-3" value="" style="shape=xor;whiteSpace=wrap;html=1;" vertex="1" parent="1">
          <mxGeometry x="170" y="70" width="60" height="80" as="geometry" />
        </mxCell>
        <mxCell id="fEd1ArXGE0hZ05VkS_pZ-4" value="" style="verticalLabelPosition=bottom;shadow=0;dashed=0;align=center;html=1;verticalAlign=top;shape=mxgraph.electrical.logic_gates.logic_gate;operation=xor;" vertex="1" parent="1">
          <mxGeometry x="500" y="370" width="100" height="60" as="geometry" />
        </mxCell>
        <mxCell id="fEd1ArXGE0hZ05VkS_pZ-24" style="edgeStyle=orthogonalEdgeStyle;rounded=0;orthogonalLoop=1;jettySize=auto;html=1;exitX=0;exitY=0.75;exitDx=0;exitDy=0;exitPerimeter=0;entryX=0;entryY=0.75;entryDx=0;entryDy=0;entryPerimeter=0;" edge="1" parent="1" target="fEd1ArXGE0hZ05VkS_pZ-5">
          <mxGeometry relative="1" as="geometry">
            <mxPoint x="590" y="220" as="sourcePoint" />
          </mxGeometry>
        </mxCell>
        <mxCell id="fEd1ArXGE0hZ05VkS_pZ-5" value="" style="verticalLabelPosition=bottom;shadow=0;dashed=0;align=center;html=1;verticalAlign=top;shape=mxgraph.electrical.logic_gates.logic_gate;operation=xor;" vertex="1" parent="1">
          <mxGeometry x="670" y="50" width="100" height="60" as="geometry" />
        </mxCell>
        <mxCell id="fEd1ArXGE0hZ05VkS_pZ-6" value="" style="triangle;whiteSpace=wrap;html=1;" vertex="1" parent="1">
          <mxGeometry x="340" y="360" width="60" height="80" as="geometry" />
        </mxCell>
        <mxCell id="fEd1ArXGE0hZ05VkS_pZ-8" value="" style="ellipse;whiteSpace=wrap;html=1;aspect=fixed;" vertex="1" parent="1">
          <mxGeometry x="400" y="395" width="10" height="10" as="geometry" />
        </mxCell>
        <mxCell id="fEd1ArXGE0hZ05VkS_pZ-11" value="a" style="text;html=1;align=center;verticalAlign=middle;resizable=0;points=[];autosize=1;strokeColor=none;fillColor=none;" vertex="1" parent="1">
          <mxGeometry x="25" y="338" width="30" height="30" as="geometry" />
        </mxCell>
        <mxCell id="fEd1ArXGE0hZ05VkS_pZ-12" value="b" style="text;html=1;align=center;verticalAlign=middle;resizable=0;points=[];autosize=1;strokeColor=none;fillColor=none;" vertex="1" parent="1">
          <mxGeometry x="25" y="378" width="30" height="30" as="geometry" />
        </mxCell>
        <mxCell id="fEd1ArXGE0hZ05VkS_pZ-15" style="edgeStyle=orthogonalEdgeStyle;rounded=0;orthogonalLoop=1;jettySize=auto;html=1;exitX=1;exitY=0.5;exitDx=0;exitDy=0;exitPerimeter=0;entryX=0.16;entryY=0.75;entryDx=0;entryDy=0;entryPerimeter=0;" edge="1" parent="1" source="fEd1ArXGE0hZ05VkS_pZ-3" target="fEd1ArXGE0hZ05VkS_pZ-4">
          <mxGeometry relative="1" as="geometry">
            <Array as="points">
              <mxPoint x="470" y="110" />
              <mxPoint x="470" y="415" />
            </Array>
          </mxGeometry>
        </mxCell>
        <mxCell id="fEd1ArXGE0hZ05VkS_pZ-17" style="edgeStyle=orthogonalEdgeStyle;rounded=0;orthogonalLoop=1;jettySize=auto;html=1;entryX=0;entryY=0.25;entryDx=0;entryDy=0;entryPerimeter=0;" edge="1" parent="1" source="fEd1ArXGE0hZ05VkS_pZ-6" target="fEd1ArXGE0hZ05VkS_pZ-4">
          <mxGeometry relative="1" as="geometry" />
        </mxCell>
        <mxCell id="fEd1ArXGE0hZ05VkS_pZ-19" style="edgeStyle=orthogonalEdgeStyle;rounded=0;orthogonalLoop=1;jettySize=auto;html=1;exitX=1;exitY=0.5;exitDx=0;exitDy=0;exitPerimeter=0;entryX=0;entryY=0.75;entryDx=0;entryDy=0;entryPerimeter=0;" edge="1" parent="1" source="fEd1ArXGE0hZ05VkS_pZ-4" target="fEd1ArXGE0hZ05VkS_pZ-2">
          <mxGeometry relative="1" as="geometry" />
        </mxCell>
        <mxCell id="fEd1ArXGE0hZ05VkS_pZ-22" value="y" style="text;html=1;align=center;verticalAlign=middle;resizable=0;points=[];autosize=1;strokeColor=none;fillColor=none;" vertex="1" parent="1">
          <mxGeometry x="793" y="222" width="30" height="30" as="geometry" />
        </mxCell>
        <mxCell id="fEd1ArXGE0hZ05VkS_pZ-34" style="edgeStyle=orthogonalEdgeStyle;rounded=0;orthogonalLoop=1;jettySize=auto;html=1;exitX=0;exitY=0.5;exitDx=0;exitDy=0;entryX=0;entryY=0.5;entryDx=0;entryDy=0;" edge="1" parent="1" target="fEd1ArXGE0hZ05VkS_pZ-33">
          <mxGeometry relative="1" as="geometry">
            <mxPoint x="330" y="40" as="sourcePoint" />
          </mxGeometry>
        </mxCell>
        <mxCell id="fEd1ArXGE0hZ05VkS_pZ-33" value="" style="ellipse;whiteSpace=wrap;html=1;aspect=fixed;" vertex="1" parent="1">
          <mxGeometry x="660" y="60" width="10" height="10" as="geometry" />
        </mxCell>
        <mxCell id="fEd1ArXGE0hZ05VkS_pZ-35" value="c" style="text;html=1;align=center;verticalAlign=middle;resizable=0;points=[];autosize=1;strokeColor=none;fillColor=none;" vertex="1" parent="1">
          <mxGeometry x="305" y="28" width="30" height="30" as="geometry" />
        </mxCell>
        <mxCell id="fEd1ArXGE0hZ05VkS_pZ-36" value="x" style="text;html=1;align=center;verticalAlign=middle;resizable=0;points=[];autosize=1;strokeColor=none;fillColor=none;" vertex="1" parent="1">
          <mxGeometry x="767" y="65" width="30" height="30" as="geometry" />
        </mxCell>
      </root>
    </mxGraphModel>
  </diagram>
</mxfile>
